<svg width="17" height="17" viewBox="0 0 17 17" fill="none" xmlns="http://www.w3.org/2000/svg">
<path d="M15.5474 5.67682L9.75735 11.4669L12.3528 14.0623C12.4959 14.2055 12.5933 14.3878 12.6328 14.5864C12.6722 14.7849 12.6519 14.9907 12.5745 15.1777C12.497 15.3647 12.3658 15.5245 12.1976 15.637C12.0293 15.7494 11.8314 15.8095 11.629 15.8095H2.09561C1.8242 15.8094 1.56392 15.7016 1.372 15.5097C1.18009 15.3178 1.07225 15.0575 1.07221 14.7861L1.07221 5.2527C1.07224 5.05029 1.13228 4.85244 1.24474 4.68415C1.35721 4.51586 1.51704 4.38469 1.70404 4.30723C1.89103 4.22976 2.0968 4.20948 2.29533 4.24894C2.49385 4.28841 2.67622 4.38584 2.81937 4.52894L5.41478 7.12435L11.2049 1.33425C11.3968 1.1423 11.6572 1.03446 11.9286 1.03446C12.2001 1.03446 12.4604 1.1423 12.6524 1.33425L15.5474 4.2293C15.7394 4.42125 15.8472 4.6816 15.8472 4.95306C15.8472 5.22452 15.7394 5.48487 15.5474 5.67682Z" stroke="#5F66E9" stroke-width="1.5" stroke-linecap="round" stroke-linejoin="round"/>
</svg>
