<svg width="100" height="99" viewBox="0 0 100 99" fill="none" xmlns="http://www.w3.org/2000/svg">
<path d="M41.1293 42.6515L44.6528 45.9544L35.4703 55.4409C28.2477 48.9787 25.967 46.1753 22.7951 39.5396C20.8944 34.8674 18.9982 22.9673 25.9671 12.4386C34.0447 1.27217 45.6863 -0.445226 51.8635 0.0842515C68.4943 1.50975 78.3897 15.3064 78.6273 28.3734C78.8173 38.8271 73.4836 45.225 70.3119 49.2804L68.2568 51.6396L49.8797 69.7125L40.8514 60.4468L58.7924 42.5584C62.0748 39.2854 65.3919 35.599 65.7436 30.9767C66.2254 24.6309 62.7115 19.526 60.8085 17.6822C51.8754 9.12922 42.0393 14.1185 38.238 17.6822C33.2389 22.8129 33.339 29.0742 34.741 33.7561C35.8067 37.3148 38.4192 40.1108 41.1293 42.6515Z" fill="url(#paint0_linear_147_654)"/>
<path d="M41.3025 42.6515L44.826 45.9543L35.643 55.4409C26.6478 48.1723 19.8307 38.62 21.0257 27.117C21.5691 21.8865 22.5107 16.7479 26.1398 12.4385C30.1927 7.62576 34.5188 5.2448 38.5603 4.09613C45.8589 2.0217 54.2163 3.54722 59.8527 8.62736C70.1262 17.8877 66.7892 32.8406 63.9158 36.672C68.6674 27.8814 63.4454 20.0412 60.9817 17.6822C52.0486 9.12918 42.2125 14.1184 38.4112 17.6822C33.4121 22.8128 33.5122 29.0742 34.9142 33.756C35.9798 37.3147 38.5924 40.1107 41.3025 42.6515Z" fill="url(#paint1_linear_147_654)"/>
<path d="M51.338 78.4863C45.6072 78.4863 41.8151 83.1718 38.469 87.3065C35.6105 90.8387 32.9111 94.1741 29.6233 94.1741C26.2059 94.1741 24.1078 90.6618 24.1078 88.1439C24.1078 85.8093 26.4095 82.4167 30.017 82.4167C33.5174 82.4167 35.341 85.2183 35.4329 85.3619C36 86.2796 37.2044 86.5684 38.1264 86.0059C39.0532 85.4412 39.3471 84.232 38.7822 83.3051C38.6623 83.1088 35.7795 78.4866 30.017 78.4866C24.2186 78.4866 20.1774 83.5767 20.1774 88.1441C20.1774 92.8554 24.0567 98.1047 29.623 98.1047C34.7855 98.1047 38.2114 93.8724 41.5241 89.779C44.5882 85.9935 47.483 82.417 51.338 82.417C53.6315 82.417 55.1389 83.1952 55.9443 84.794C56.6426 86.1815 56.6419 87.7515 56.6415 88.2955C56.6415 88.6074 56.4766 90.1718 55.7136 91.5806C54.8432 93.1853 53.6079 93.9323 51.823 93.9323C48.2281 93.9323 46.2859 91.5956 45.5546 90.7156C45.3642 90.4865 45.2276 90.3216 45.0445 90.1651C44.2212 89.4598 42.9802 89.5545 42.2736 90.3789C41.592 91.174 41.6578 92.3561 42.4018 93.0716C42.4374 93.1119 42.4803 93.1649 42.5311 93.2265C43.4841 94.3736 46.3825 97.8622 51.8219 97.8622C58.433 97.8622 60.571 91.416 60.571 88.2686C60.5718 86.264 60.1961 84.5006 59.4542 83.0263C58.4123 80.9558 56.1576 78.4863 51.338 78.4863Z" fill="url(#paint2_linear_147_654)"/>
<path d="M50.9754 78.4738C45.3645 78.4738 41.6517 83.0612 38.3756 87.1095C35.577 90.5678 32.934 93.8333 29.715 93.8333C26.3691 93.8333 24.3149 90.3945 24.3149 87.9293C24.3149 85.6436 26.5684 82.322 30.1004 82.322C33.5276 82.322 35.313 85.0649 35.403 85.2055C35.9583 86.104 37.1374 86.3868 38.0402 85.8361C38.9476 85.2832 39.2354 84.0993 38.6822 83.1918C38.5649 82.9996 35.7424 78.474 30.1004 78.474C24.4233 78.474 20.4667 83.4577 20.4667 87.9296C20.4667 92.5422 24.2648 97.6818 29.7147 97.6818C34.7692 97.6818 38.1234 93.5379 41.3667 89.5302C44.3667 85.8239 47.201 82.3222 50.9754 82.3222C53.2209 82.3222 54.6967 83.0841 55.4853 84.6495C56.169 86.008 56.1683 87.5452 56.1679 88.0778C56.1679 88.3831 56.0064 89.9148 55.2594 91.2941C54.4072 92.8653 53.1978 93.5967 51.4502 93.5967C47.9305 93.5967 46.0289 91.3088 45.3129 90.4472C45.1265 90.2229 44.9928 90.0615 44.8135 89.9083C44.0075 89.2177 42.7924 89.3104 42.1006 90.1176C41.4333 90.896 41.4976 92.0534 42.2261 92.7539C42.261 92.7934 42.3029 92.8453 42.3527 92.9056C43.2858 94.0287 46.1236 97.4443 51.4492 97.4443C57.9219 97.4443 60.0152 91.133 60.0152 88.0515C60.0159 86.0888 59.6481 84.3623 58.9218 82.9188C57.9016 80.8916 55.6941 78.4738 50.9754 78.4738Z" fill="url(#paint3_linear_147_654)"/>
<path d="M4.60424 95.7268L4.2173 96.3238L4.22367 96.3279L4.23014 96.332L4.60424 95.7268ZM1.73583 83.6386L2.36773 83.9655L2.36997 83.9611L1.73583 83.6386ZM4.60424 80.4629L4.98327 81.0649L4.98615 81.0631L4.60424 80.4629ZM12.5948 80.0873L12.2541 80.7118L12.257 80.7134L12.26 80.715L12.5948 80.0873ZM15.0875 82.3069L14.5 82.7081L15.7989 84.61V82.3069H15.0875ZM15.0875 72.7114V72H14.3761V72.7114H15.0875ZM17.6486 72.7114H18.36V72H17.6486V72.7114ZM17.6486 96.6147V97.3261H18.36V96.6147H17.6486ZM15.0875 96.6147H14.3761V97.3261H15.0875V96.6147ZM15.0875 93.8829H15.7989V91.626L14.5047 93.4749L15.0875 93.8829ZM12.5948 96.0683L12.26 95.4406L12.257 95.4422L12.2541 95.4438L12.5948 96.0683ZM12.5265 93.678L12.1318 93.0861L12.1283 93.0884L12.1247 93.0909L12.5265 93.678ZM14.5412 91.3218L15.1862 91.6218L15.1875 91.619L15.1888 91.6162L14.5412 91.3218ZM14.5412 84.8338L13.8961 85.1338L14.5412 84.8338ZM12.5265 82.4776L12.1247 83.0647L12.1283 83.0671L12.1318 83.0695L12.5265 82.4776ZM6.07258 82.4776L5.68486 81.8811L6.07258 82.4776ZM3.98958 84.8338L3.35031 84.5216L3.98958 84.8338ZM3.98958 91.3218L3.34754 91.6282L3.34892 91.6311L3.35031 91.634L3.98958 91.3218ZM6.07258 93.678L6.46026 93.0815L6.07258 93.678ZM8.97512 96.1764C7.42792 96.1764 6.10399 95.8176 4.97829 95.1217L4.23014 96.332C5.60863 97.1841 7.19859 97.5993 8.97512 97.5993V96.1764ZM4.99117 95.1299C3.8701 94.4032 2.99783 93.4293 2.36997 92.1945L1.1017 92.8394C1.83974 94.2909 2.87974 95.4569 4.2173 96.3238L4.99117 95.1299ZM2.36997 92.1945C1.74146 90.9585 1.42281 89.5904 1.42281 88.0778H0C0 89.7978 0.364301 91.3892 1.1017 92.8394L2.36997 92.1945ZM1.42281 88.0778C1.42281 86.5406 1.74221 85.1748 2.36771 83.9654L1.10395 83.3118C0.36355 84.7432 0 86.3368 0 88.0778H1.42281ZM2.36997 83.9611C2.99696 82.728 3.86683 81.7679 4.98327 81.0649L4.22516 79.8609C2.88299 80.7059 1.8406 81.863 1.1017 83.3162L2.36997 83.9611ZM4.98615 81.0631C6.11078 80.3474 7.43186 79.9791 8.97512 79.9791V78.5563C7.19468 78.5563 5.60184 78.9848 4.22228 79.8627L4.98615 81.0631ZM8.97512 79.9791C10.2953 79.9791 11.3789 80.2344 12.2541 80.7118L12.9354 79.4627C11.8073 78.8474 10.4777 78.5563 8.97512 78.5563V79.9791ZM12.26 80.715C13.186 81.2088 13.9291 81.8721 14.5 82.7081L15.675 81.9057C14.971 80.8749 14.0524 80.0584 12.9295 79.4596L12.26 80.715ZM15.7989 82.3069V72.7114H14.3761V82.3069H15.7989ZM15.0875 73.4228H17.6486V72H15.0875V73.4228ZM16.9372 72.7114V96.6147H18.36V72.7114H16.9372ZM17.6486 95.9033H15.0875V97.3261H17.6486V95.9033ZM15.7989 96.6147V93.8829H14.3761V96.6147H15.7989ZM14.5047 93.4749C13.9344 94.2896 13.1901 94.9445 12.26 95.4406L12.9295 96.696C14.0482 96.0994 14.9658 95.2973 15.6703 94.2908L14.5047 93.4749ZM12.2541 95.4438C11.3789 95.9212 10.2953 96.1764 8.97512 96.1764V97.5993C10.4777 97.5993 11.8073 97.3082 12.9354 96.6929L12.2541 95.4438ZM9.31659 95.2772C10.7034 95.2772 11.9213 94.9541 12.9282 94.2651L12.1247 93.0909C11.4015 93.5857 10.4795 93.8544 9.31659 93.8544V95.2772ZM12.9211 94.2699C13.9189 93.6047 14.6765 92.7177 15.1862 91.6218L13.8961 91.0218C13.4952 91.8837 12.9096 92.5675 12.1318 93.0861L12.9211 94.2699ZM15.1888 91.6162C15.6884 90.517 15.9355 89.3346 15.9355 88.0778H14.5127C14.5127 89.143 14.3045 90.1233 13.8935 91.0274L15.1888 91.6162ZM15.9355 88.0778C15.9355 86.8005 15.6893 85.6154 15.1862 84.5337L13.8961 85.1338C14.3036 86.0099 14.5127 86.9875 14.5127 88.0778H15.9355ZM15.1862 84.5337C14.6765 83.4379 13.9189 82.5509 12.9211 81.8857L12.1318 83.0695C12.9096 83.5881 13.4952 84.2719 13.8961 85.1338L15.1862 84.5337ZM12.9282 81.8905C11.9213 81.2015 10.7034 80.8784 9.31659 80.8784V82.3012C10.4795 82.3012 11.4015 82.5699 12.1247 83.0647L12.9282 81.8905ZM9.31659 80.8784C7.94842 80.8784 6.72768 81.2033 5.68486 81.8811L6.46026 83.0741C7.23865 82.5681 8.18058 82.3012 9.31659 82.3012V80.8784ZM5.68486 81.8811C4.66588 82.5435 3.88475 83.4273 3.35031 84.5216L4.62881 85.146C5.0505 84.2825 5.65808 83.5955 6.46026 83.0741L5.68486 81.8811ZM3.35031 84.5216C2.82076 85.6059 2.56106 86.7953 2.56106 88.0778H3.98389C3.98389 86.9927 4.20225 86.0194 4.62881 85.146L3.35031 84.5216ZM2.56106 88.0778C2.56106 89.3398 2.82169 90.5265 3.34754 91.6282L4.63159 91.0154C4.20133 90.1138 3.98389 89.1378 3.98389 88.0778H2.56106ZM3.35031 91.634C3.88475 92.7283 4.66588 93.6121 5.68486 94.2745L6.46026 93.0815C5.65808 92.5601 5.0505 91.8731 4.62881 91.0096L3.35031 91.634ZM5.68486 94.2745C6.72768 94.9523 7.94842 95.2772 9.31659 95.2772V93.8544C8.18058 93.8544 7.23865 93.5875 6.46026 93.0815L5.68486 94.2745ZM62.7177 96.6147H62.0063V97.3261H62.7177V96.6147ZM62.7177 79.5409V78.8295H62.0063V79.5409H62.7177ZM65.2787 79.5409H65.9901V78.8295H65.2787V79.5409ZM65.2787 82.2044H64.5673V84.3386L65.8479 82.6313L65.2787 82.2044ZM67.5325 80.1214L67.9163 80.7204L67.5325 80.1214ZM74.2595 80.1214L73.9138 80.7433L73.922 80.7478L73.9301 80.7522L74.2595 80.1214ZM76.7864 82.6142L76.1686 82.9672L76.1729 82.9747L76.1775 82.9821L76.7864 82.6142ZM77.7767 96.6147V97.3261H78.4881V96.6147H77.7767ZM75.2157 96.6147H74.5043V97.3261H75.2157V96.6147ZM73.8839 83.024L73.3624 83.508L73.3653 83.5112L73.3685 83.5143L73.8839 83.024ZM67.8398 82.2386L67.4926 81.6175L67.8398 82.2386ZM65.9617 84.0825L65.3516 83.7165L65.3499 83.7192L65.3484 83.7219L65.9617 84.0825ZM65.2787 96.6147V97.3261H65.9901V96.6147H65.2787ZM63.4291 96.6147V79.5409H62.0063V96.6147H63.4291ZM62.7177 80.2523H65.2787V78.8295H62.7177V80.2523ZM64.5673 79.5409V82.2044H65.9901V79.5409H64.5673ZM65.8479 82.6313C66.4099 81.8817 67.0978 81.245 67.9163 80.7204L67.1483 79.5225C66.1911 80.1361 65.3765 80.8881 64.7096 81.7776L65.8479 82.6313ZM67.9163 80.7204C68.6586 80.2446 69.6521 79.9791 70.9472 79.9791V78.5563C69.4646 78.5563 68.182 78.86 67.1483 79.5225L67.9163 80.7204ZM70.9472 79.9791C72.0111 79.9791 72.9964 80.2335 73.9138 80.7433L74.6049 79.4995C73.4738 78.8711 72.2505 78.5563 70.9472 78.5563V79.9791ZM73.9301 80.7522C74.8461 81.2299 75.5927 81.9592 76.1686 82.9672L77.4039 82.2612C76.705 81.0382 75.767 80.1056 74.5886 79.4907L73.9301 80.7522ZM76.1775 82.9821C76.7548 83.9379 77.0653 85.157 77.0653 86.6777H78.4881C78.4881 84.9659 78.1381 83.476 77.3951 82.2463L76.1775 82.9821ZM77.0653 86.6777V96.6147H78.4881V86.6777H77.0653ZM77.7767 95.9033H75.2157V97.3261H77.7767V95.9033ZM75.9271 96.6147V86.746H74.5043V96.6147H75.9271ZM75.9271 86.746C75.9271 85.0546 75.4373 83.6251 74.3993 82.5337L73.3685 83.5143C74.1059 84.2896 74.5043 85.3414 74.5043 86.746H75.9271ZM74.405 82.5399C73.371 81.4261 72.0261 80.8784 70.435 80.8784V82.3012C71.6665 82.3012 72.6212 82.7096 73.3624 83.508L74.405 82.5399ZM70.435 80.8784C69.3672 80.8784 68.3808 81.1211 67.4926 81.6175L68.1866 82.8596C68.8464 82.4909 69.5906 82.3012 70.435 82.3012V80.8784ZM67.4926 81.6175C66.6048 82.1136 65.8902 82.8185 65.3516 83.7165L66.5717 84.4486C66.989 83.753 67.5264 83.2286 68.1866 82.8596L67.4926 81.6175ZM65.3484 83.7219C64.8202 84.6199 64.5673 85.6471 64.5673 86.7802H65.9901C65.9901 85.8644 66.1925 85.0932 66.5746 84.4432L65.3484 83.7219ZM64.5673 86.7802V96.6147H65.9901V86.7802H64.5673ZM65.2787 95.9033H62.7177V97.3261H65.2787V95.9033ZM83.7308 96.6147H83.0194V97.3261H83.7308V96.6147ZM83.7308 72.7114V72H83.0194V72.7114H83.7308ZM86.2919 72.7114H87.0033V72H86.2919V72.7114ZM86.2919 88.0095H85.5805V89.7624L86.802 88.5053L86.2919 88.0095ZM94.5215 79.5409V78.8295H94.2205L94.011 79.0451L94.5215 79.5409ZM98.1069 79.5409L98.6049 80.049L99.8492 78.8295H98.1069V79.5409ZM91.2433 86.268L90.7453 85.7599L90.3106 86.1857L90.6638 86.6809L91.2433 86.268ZM98.6192 96.6147V97.3261H100L99.1982 96.2017L98.6192 96.6147ZM95.4776 96.6147L94.8939 97.0216L95.1062 97.3261H95.4776V96.6147ZM89.5018 88.0436L90.0851 87.6368L89.6021 86.9436L89.0013 87.5379L89.5018 88.0436ZM86.2919 91.2194L85.7914 90.7136L85.5805 90.9225V91.2194H86.2919ZM86.2919 96.6147V97.3261H87.0033V96.6147H86.2919ZM84.4423 96.6147V72.7114H83.0194V96.6147H84.4423ZM83.7308 73.4228H86.2919V72H83.7308V73.4228ZM85.5805 72.7114V88.0095H87.0033V72.7114H85.5805ZM86.802 88.5053L95.0315 80.0367L94.011 79.0451L85.7815 87.5137L86.802 88.5053ZM94.5215 80.2523H98.1069V78.8295H94.5215V80.2523ZM97.609 79.0328L90.7453 85.7599L91.7413 86.7761L98.6049 80.049L97.609 79.0328ZM90.6638 86.6809L98.0397 97.0276L99.1982 96.2017L91.8224 85.855L90.6638 86.6809ZM98.6192 95.9033H95.4776V97.3261H98.6192V95.9033ZM96.0609 96.2078L90.0851 87.6368L88.9181 88.4505L94.8939 97.0216L96.0609 96.2078ZM89.0013 87.5379L85.7914 90.7136L86.792 91.7251L90.0019 88.5494L89.0013 87.5379ZM85.5805 91.2194V96.6147H87.0033V91.2194H85.5805ZM86.2919 95.9033H83.7308V97.3261H86.2919V95.9033Z" fill="url(#paint4_linear_147_654)"/>
<path d="M8.97526 96.8878C7.31341 96.8878 5.85645 96.5008 4.60438 95.7268C3.37507 94.93 2.41892 93.8601 1.73597 92.517C1.05302 91.1738 0.711548 89.6941 0.711548 88.0778C0.711548 86.4387 1.05302 84.959 1.73597 83.6386C2.41892 82.2955 3.37507 81.2369 4.60438 80.4629C5.85645 79.6661 7.31341 79.2677 8.97526 79.2677C10.3867 79.2677 11.5932 79.5409 12.5949 80.0873C13.6193 80.6336 14.4502 81.3735 15.0877 82.3069V72.7114H17.6487V96.6147H15.0877V93.8829C14.4502 94.7935 13.6193 95.5219 12.5949 96.0683C11.5932 96.6147 10.3867 96.8878 8.97526 96.8878ZM9.31673 94.5658C10.5916 94.5658 11.6615 94.2699 12.5266 93.678C13.4144 93.0861 14.086 92.3007 14.5413 91.3218C14.9966 90.3201 15.2243 89.2388 15.2243 88.0778C15.2243 86.894 14.9966 85.8127 14.5413 84.8338C14.086 83.8549 13.4144 83.0695 12.5266 82.4776C11.6615 81.8857 10.5916 81.5898 9.31673 81.5898C8.06466 81.5898 6.98332 81.8857 6.07272 82.4776C5.16212 83.0695 4.46779 83.8549 3.98972 84.8338C3.51166 85.8127 3.27262 86.894 3.27262 88.0778C3.27262 89.2388 3.51166 90.3201 3.98972 91.3218C4.46779 92.3007 5.16212 93.0861 6.07272 93.678C6.98332 94.2699 8.06466 94.5658 9.31673 94.5658ZM62.7178 96.6147V79.5409H65.2789V82.2044C65.8935 81.3849 66.6448 80.6905 67.5326 80.1214C68.4204 79.5523 69.5587 79.2677 70.9474 79.2677C72.1311 79.2677 73.2352 79.5523 74.2597 80.1214C75.3069 80.6678 76.1492 81.4987 76.7866 82.6142C77.4468 83.7069 77.7769 85.0614 77.7769 86.6777V96.6147H75.2158V86.746C75.2158 85.198 74.7719 83.9573 73.884 83.0239C72.9962 82.0678 71.8466 81.5898 70.4351 81.5898C69.479 81.5898 68.6139 81.806 67.8399 82.2386C67.0659 82.6711 66.4399 83.2857 65.9618 84.0825C65.5065 84.8565 65.2789 85.7558 65.2789 86.7802V96.6147H62.7178ZM83.731 96.6147V72.7114H86.292V88.0095L94.5216 79.5409H98.1071L91.2434 86.268L98.6193 96.6147H95.4777L89.5019 88.0436L86.292 91.2194V96.6147H83.731Z" fill="url(#paint5_linear_147_654)"/>
<defs>
<linearGradient id="paint0_linear_147_654" x1="76.0971" y1="-0.390912" x2="49.8047" y2="69.7125" gradientUnits="userSpaceOnUse">
<stop stop-color="#010306"/>
<stop offset="1" stop-color="#004A61"/>
</linearGradient>
<linearGradient id="paint1_linear_147_654" x1="41.1074" y1="9.34994" x2="28.5156" y2="50.9268" gradientUnits="userSpaceOnUse">
<stop stop-color="#38A941"/>
<stop offset="1" stop-color="#22862D"/>
</linearGradient>
<linearGradient id="paint2_linear_147_654" x1="40.3742" y1="78.4863" x2="40.3742" y2="98.1047" gradientUnits="userSpaceOnUse">
<stop stop-color="#010306"/>
<stop offset="1" stop-color="#004A61"/>
</linearGradient>
<linearGradient id="paint3_linear_147_654" x1="40.2409" y1="78.4738" x2="40.2409" y2="97.6818" gradientUnits="userSpaceOnUse">
<stop stop-color="#010306"/>
<stop offset="1" stop-color="#004A61"/>
</linearGradient>
<linearGradient id="paint4_linear_147_654" x1="50" y1="72" x2="50" y2="97.5993" gradientUnits="userSpaceOnUse">
<stop stop-color="#010306"/>
<stop offset="1" stop-color="#004A61"/>
</linearGradient>
<linearGradient id="paint5_linear_147_654" x1="49.6654" y1="72.7114" x2="49.6654" y2="96.8878" gradientUnits="userSpaceOnUse">
<stop stop-color="#010306"/>
<stop offset="1" stop-color="#004A61"/>
</linearGradient>
</defs>
</svg>
