<svg width="34" height="36" viewBox="0 0 34 36" fill="none" xmlns="http://www.w3.org/2000/svg">
<path fill-rule="evenodd" clip-rule="evenodd" d="M13.8966 1.025C14.6431 0.801052 15.4316 0.754725 16.1992 0.889714C16.9669 1.0247 17.6923 1.33727 18.3176 1.80246C18.9429 2.26765 19.4509 2.87259 19.8008 3.56898C20.1508 4.26538 20.3331 5.03394 20.3333 5.81333V30.1867C20.3331 30.966 20.1508 31.7346 19.8008 32.431C19.4509 33.1274 18.9429 33.7323 18.3176 34.1975C17.6923 34.6627 16.9669 34.9753 16.1992 35.1103C15.4316 35.2453 14.6431 35.1989 13.8966 34.975L3.89659 31.975C2.86675 31.6661 1.96393 31.0334 1.32205 30.1709C0.680175 29.3083 0.333428 28.2618 0.333252 27.1867V8.81333C0.333428 7.73816 0.680175 6.69168 1.32205 5.82914C1.96393 4.96659 2.86675 4.33393 3.89659 4.025L13.8966 1.025ZM21.9999 4.66666C21.9999 4.22463 22.1755 3.80071 22.4881 3.48815C22.8006 3.17559 23.2246 2.99999 23.6666 2.99999H28.6666C29.9927 2.99999 31.2644 3.52678 32.2021 4.46446C33.1398 5.40214 33.6666 6.67391 33.6666 7.99999V9.66666C33.6666 10.1087 33.491 10.5326 33.1784 10.8452C32.8659 11.1577 32.4419 11.3333 31.9999 11.3333C31.5579 11.3333 31.134 11.1577 30.8214 10.8452C30.5088 10.5326 30.3333 10.1087 30.3333 9.66666V7.99999C30.3333 7.55797 30.1577 7.13404 29.8451 6.82148C29.5325 6.50892 29.1086 6.33333 28.6666 6.33333H23.6666C23.2246 6.33333 22.8006 6.15773 22.4881 5.84517C22.1755 5.53261 21.9999 5.10869 21.9999 4.66666ZM31.9999 24.6667C32.4419 24.6667 32.8659 24.8423 33.1784 25.1548C33.491 25.4674 33.6666 25.8913 33.6666 26.3333V28C33.6666 29.3261 33.1398 30.5978 32.2021 31.5355C31.2644 32.4732 29.9927 33 28.6666 33H23.6666C23.2246 33 22.8006 32.8244 22.4881 32.5118C22.1755 32.1993 21.9999 31.7754 21.9999 31.3333C21.9999 30.8913 22.1755 30.4674 22.4881 30.1548C22.8006 29.8423 23.2246 29.6667 23.6666 29.6667H28.6666C29.1086 29.6667 29.5325 29.4911 29.8451 29.1785C30.1577 28.8659 30.3333 28.442 30.3333 28V26.3333C30.3333 25.8913 30.5088 25.4674 30.8214 25.1548C31.134 24.8423 31.5579 24.6667 31.9999 24.6667ZM11.9999 16.3333C11.5579 16.3333 11.134 16.5089 10.8214 16.8215C10.5088 17.134 10.3333 17.558 10.3333 18C10.3333 18.442 10.5088 18.8659 10.8214 19.1785C11.134 19.4911 11.5579 19.6667 11.9999 19.6667H12.0016C12.4436 19.6667 12.8675 19.4911 13.1801 19.1785C13.4927 18.8659 13.6683 18.442 13.6683 18C13.6683 17.558 13.4927 17.134 13.1801 16.8215C12.8675 16.5089 12.4436 16.3333 12.0016 16.3333H11.9999Z" fill="#292D32"/>
<path d="M31.9998 18L28.6665 21.3334M23.6665 18H31.9998H23.6665ZM31.9998 18L28.6665 14.6667L31.9998 18Z" stroke="#3366FF" stroke-width="3.33333" stroke-linecap="round" stroke-linejoin="round"/>
</svg>
