<svg width="18" height="17" viewBox="0 0 18 17" fill="none" xmlns="http://www.w3.org/2000/svg">
<path d="M1.92423 11.3232L7.71433 5.53308L5.11892 2.93767C4.97582 2.79452 4.87839 2.61215 4.83892 2.41363C4.79946 2.2151 4.81974 2.00934 4.89721 1.82234C4.97467 1.63534 5.10584 1.47551 5.27413 1.36305C5.44242 1.25058 5.64027 1.19054 5.84268 1.19051H15.3761C15.6475 1.19055 15.9078 1.29839 16.0997 1.4903C16.2916 1.68222 16.3994 1.9425 16.3995 2.21391L16.3995 11.7473C16.3994 11.9497 16.3394 12.1476 16.2269 12.3159C16.1145 12.4841 15.9546 12.6153 15.7676 12.6928C15.5806 12.7702 15.3749 12.7905 15.1764 12.7511C14.9778 12.7116 14.7955 12.6142 14.6523 12.4711L12.0569 9.87565L6.2668 15.6657C6.07485 15.8577 5.8145 15.9655 5.54304 15.9655C5.27158 15.9655 5.01123 15.8577 4.81928 15.6657L1.92423 12.7707C1.73228 12.5787 1.62444 12.3184 1.62444 12.0469C1.62444 11.7755 1.73228 11.5151 1.92423 11.3232Z" stroke="#FF333F" stroke-width="1.5" stroke-linecap="round" stroke-linejoin="round"/>
</svg>
